<?xml version="1.0" encoding="UTF-8" standalone="no"?>
<svg
   width="230"
   height="60"
   viewBox="0 0 230 60"
   fill="none"
   version="1.1"
   id="svg10"
   xmlns="http://www.w3.org/2000/svg"
   xmlns:svg="http://www.w3.org/2000/svg">
  <defs
     id="defs10" />
  <path
     d="m 49.976,47.3193 c -1.2852,0.734 -15.484,8.9564 -15.484,8.9564 -2.9408,1.6048 -5.9333,1.6596 -8.8638,3e-4 C 20.1934,53.1985 14.7728,50.0942 9.39467,46.9195 6.51358,45.219 5.0201,42.6105 5.01263,39.2353 4.99893,33.0498 4.99155,26.864 5.01623,20.6786 5.02973,17.3023 6.5673,14.719 9.45032,13.0233 14.7881,9.88395 20.1617,6.80412 25.5485,3.74895 c 2.981,-1.69063 6.0198,-1.65541 8.999,0.04805 5.2398,2.99612 10.4702,6.00902 15.6945,9.0319 3.1772,1.8384 4.7793,4.565 4.7508,8.2772 -0.0445,5.8706 -0.0623,11.7424 0.0062,17.6127 0.0457,3.9152 -1.665,6.6935 -5.023,8.6005 z M 19.1745,11.7732 c -2.4542,1.4181 -4.8938,2.8624 -7.3672,4.2463 -2.0196,1.13 -3.03245,2.7573 -3.0117,5.1084 0.04722,5.3463 0.01203,10.6933 0.0186,16.0401 4.8e-4,0.382 0.0683,0.7637 0.10483,1.1457 0.11477,0.0645 0.22954,0.1293 0.34432,0.1941 0.35785,-0.4443 0.67838,-0.9255 1.07925,-1.327 5.34,-5.3475 10.6909,-10.6843 16.0397,-16.0231 2.9917,-2.9859 4.2282,-2.9946 7.175,-0.0535 5.386,5.3758 10.7712,10.7525 16.1605,16.1253 0.3895,0.3885 0.809,0.7472 1.293,1.192 0.0875,-0.3068 0.161,-0.4445 0.161,-0.5822 0.0032,-5.766 0.0065,-11.5321 -0.0065,-17.2981 -0.0045,-1.9721 -1,-3.3758 -2.6615,-4.3365 -5.225,-3.0213 -10.4611,-6.0237 -15.6868,-9.0436 -1.9,-1.09795 -3.7665,-1.09585 -5.6645,0.01885 -2.5797,1.5151 -5.1809,2.99375 -7.978,4.59325 z m 3.4259,18.5215 c -3.5596,3.5548 -7.1235,7.1051 -10.6765,10.6661 -1.4458,1.4492 -1.3465,2.2922 0.3859,3.2947 4.173,2.4147 8.3501,4.8228 12.537,7.2135 0.4467,0.2553 0.9695,0.378 1.5125,0.5835 0.088,-0.3923 0.1634,-0.5457 0.1462,-0.6882 -0.0435,-0.3618 -0.1255,-0.7196 -0.1975,-1.0778 -0.6905,-3.429 -0.861,-6.8967 0.11,-10.261 0.8665,-3.0012 2.1205,-5.8907 3.189,-8.8347 0.756,-2.0825 1.364,-4.1958 0.7982,-6.4365 -0.3472,-1.3761 -0.7334,-1.4866 -1.7429,-0.4955 -1.982,1.9455 -3.9377,3.9177 -6.0619,6.0359 z"
     fill="#ffffff"
     id="path10" />
  <text
     xml:space="preserve"
     style="font-size:37.3333px;line-height:0.4;font-family:'Sitka Display';-inkscape-font-specification:'Sitka Display';direction:rtl;fill:#ffffff"
     x="220.07625"
     y="41.544868"
     id="text10"><tspan
       id="tspan10"
       x="220.07625"
       y="41.544868"
       style="font-style:normal;font-variant:normal;font-weight:bold;font-stretch:normal;font-size:37.3333px;line-height:0.4;font-family:'Sitka Display';-inkscape-font-specification:'Sitka Display Bold';fill:#ffffff">Bee Smart</tspan></text>
</svg>
